<svg width="22" height="21" viewBox="0 0 22 21" fill="none" xmlns="http://www.w3.org/2000/svg">
<path d="M12.875 17.074C12.2569 17.1909 11.6291 17.2495 11 17.249C6.52203 17.249 2.73203 14.306 1.45703 10.249C1.8003 9.15712 2.32902 8.13249 3.02003 7.22002M8.87803 8.12802C9.44069 7.56537 10.2038 7.24927 10.9995 7.24927C11.7952 7.24927 12.5584 7.56537 13.121 8.12802C13.6837 8.69068 13.9998 9.45381 13.9998 10.2495C13.9998 11.0452 13.6837 11.8084 13.121 12.371M8.87803 8.12802L13.121 12.371M8.87803 8.12802L13.12 12.369M13.121 12.371L16.412 15.661M8.88003 8.12902L5.59003 4.83902M5.59003 4.83902L2.00003 1.24902M5.59003 4.83902C7.20239 3.79859 9.08113 3.24643 11 3.24902C15.478 3.24902 19.268 6.19202 20.543 10.249C19.8391 12.4795 18.3774 14.3936 16.411 15.66M5.59003 4.83902L16.411 15.66M16.411 15.66L20 19.249" stroke="#707070" stroke-width="2" stroke-linecap="round" stroke-linejoin="round"/>
</svg>
