<svg width="10" height="11" viewBox="0 0 10 11" fill="none" xmlns="http://www.w3.org/2000/svg">
<g opacity="0.7" clip-path="url(#clip0_70_15666)">
<path d="M8.98702 3.40936L8.987 3.40938L4.08701 8.30937L4.0869 8.30948C3.97468 8.42269 3.82684 8.47866 3.6787 8.47866C3.53066 8.47866 3.38312 8.42227 3.27051 8.30948L3.27049 8.30946L0.820498 5.85947L0.820449 5.85942C0.707704 5.74713 0.651211 5.59923 0.651211 5.45116C0.651211 5.12147 0.920811 4.87367 1.22871 4.87367C1.37653 4.87367 1.5243 4.93006 1.6369 5.04284L1.63692 5.04285L3.65395 7.06075L3.6787 7.08551L3.70345 7.06075L8.17086 2.59334L8.171 2.5932C8.28277 2.48017 8.43062 2.42367 8.57869 2.42367C8.88752 2.42367 9.15619 2.67108 9.15619 3.00117C9.15619 3.14899 9.0998 3.29676 8.98702 3.40936Z" fill="#343434" stroke="#F2F2F2" stroke-width="0.0699998"/>
</g>
<defs>
<clipPath id="clip0_70_15666">
<rect width="9.79997" height="9.79997" fill="white" transform="translate(0.000976562 0.550781)"/>
</clipPath>
</defs>
</svg>
