<svg width="10" height="10" viewBox="0 0 10 10" fill="none" xmlns="http://www.w3.org/2000/svg">
<g opacity="0.7" clip-path="url(#clip0_70_15678)">
<path d="M8.98311 3.00897L8.98309 3.00899L4.0831 7.90898L4.08299 7.90909C3.97078 8.0223 3.82294 8.07826 3.6748 8.07826C3.52675 8.07826 3.37921 8.02188 3.26661 7.90909L3.26659 7.90907L0.816592 5.45908L0.816542 5.45903C0.703798 5.34674 0.647305 5.19884 0.647305 5.05077C0.647305 4.72108 0.916904 4.47327 1.2248 4.47327C1.37263 4.47327 1.52039 4.52967 1.63299 4.64245L1.63301 4.64246L3.65004 6.66036L3.67479 6.68511L3.69954 6.66036L8.16696 2.19295L8.16709 2.19281C8.27887 2.07977 8.42671 2.02328 8.57478 2.02328C8.88362 2.02328 9.15228 2.27069 9.15228 2.60078C9.15228 2.7486 9.09589 2.89637 8.98311 3.00897Z" fill="#343434" stroke="#F2F2F2" stroke-width="0.0699998"/>
</g>
<defs>
<clipPath id="clip0_70_15678">
<rect width="9.79997" height="9.79997" fill="white" transform="translate(-0.000976562 0.150391)"/>
</clipPath>
</defs>
</svg>
