<svg width="10" height="11" viewBox="0 0 10 11" fill="none" xmlns="http://www.w3.org/2000/svg">
<g opacity="0.7" clip-path="url(#clip0_70_15702)">
<path d="M8.9792 3.20819L8.97918 3.20821L4.0792 8.1082L4.07909 8.1083C3.96687 8.22152 3.81903 8.27748 3.67089 8.27748C3.52284 8.27748 3.3753 8.2211 3.2627 8.10831L3.26268 8.10829L0.812686 5.6583L0.812636 5.65825C0.699891 5.54596 0.643398 5.39805 0.643398 5.24999C0.643398 4.9203 0.912998 4.67249 1.2209 4.67249C1.36872 4.67249 1.51649 4.72889 1.62909 4.84167L1.6291 4.84168L3.64614 6.85957L3.67088 6.88433L3.69564 6.85958L8.16305 2.39217L8.16319 2.39203C8.27496 2.27899 8.42281 2.2225 8.57088 2.2225C8.87971 2.2225 9.14838 2.46991 9.14838 2.8C9.14838 2.94782 9.09198 3.09559 8.9792 3.20819Z" fill="#343434" stroke="#F2F2F2" stroke-width="0.0699998"/>
</g>
<defs>
<clipPath id="clip0_70_15702">
<rect width="9.79997" height="9.79997" fill="white" transform="translate(-0.00292969 0.349609)"/>
</clipPath>
</defs>
</svg>
