<svg width="10" height="11" viewBox="0 0 10 11" fill="none" xmlns="http://www.w3.org/2000/svg">
<g opacity="0.7" clip-path="url(#clip0_70_15672)">
<path d="M8.97823 3.70819L8.97821 3.70821L4.07822 8.6082L4.07811 8.6083C3.96589 8.72152 3.81805 8.77748 3.66991 8.77748C3.52187 8.77748 3.37433 8.7211 3.26172 8.60831L3.2617 8.60829L0.811709 6.1583L0.81166 6.15825C0.698915 6.04596 0.642422 5.89805 0.642422 5.74999C0.642422 5.4203 0.912022 5.17249 1.21992 5.17249C1.36774 5.17249 1.51551 5.22889 1.62811 5.34167L1.62813 5.34168L3.64516 7.35957L3.66991 7.38433L3.69466 7.35958L8.16207 2.89217L8.16221 2.89203C8.27399 2.77899 8.42183 2.7225 8.5699 2.7225C8.87874 2.7225 9.1474 2.96991 9.1474 3.3C9.1474 3.44782 9.09101 3.59559 8.97823 3.70819Z" fill="#343434" stroke="#F2F2F2" stroke-width="0.0699998"/>
</g>
<defs>
<clipPath id="clip0_70_15672">
<rect width="9.79997" height="9.79997" fill="white" transform="translate(-0.00390625 0.849609)"/>
</clipPath>
</defs>
</svg>
