<svg width="7" height="13" viewBox="0 0 7 13" fill="none" xmlns="http://www.w3.org/2000/svg">
<g clip-path="url(#clip0_78_26337)">
<path fill-rule="evenodd" clip-rule="evenodd" d="M6.8588 0.147001C6.90536 0.193446 6.94231 0.248622 6.96751 0.309367C6.99272 0.370112 7.00569 0.435233 7.00569 0.501001C7.00569 0.566768 6.99272 0.631889 6.96751 0.692634C6.94231 0.753379 6.90536 0.808555 6.8588 0.855001L1.2118 6.501L6.8588 12.147C6.95269 12.2409 7.00543 12.3682 7.00543 12.501C7.00543 12.6338 6.95269 12.7611 6.8588 12.855C6.76491 12.9489 6.63758 13.0016 6.5048 13.0016C6.37202 13.0016 6.24469 12.9489 6.1508 12.855L0.1508 6.855C0.104237 6.80855 0.0672935 6.75338 0.0420871 6.69263C0.0168806 6.63189 0.00390625 6.56677 0.00390625 6.501C0.00390625 6.43523 0.0168806 6.37011 0.0420871 6.30937C0.0672935 6.24862 0.104237 6.19345 0.1508 6.147L6.1508 0.147001C6.19725 0.100437 6.25242 0.0634946 6.31317 0.0382881C6.37391 0.0130817 6.43903 0.000106812 6.5048 0.000106812C6.57057 0.000106812 6.63569 0.0130817 6.69643 0.0382881C6.75718 0.0634946 6.81235 0.100437 6.8588 0.147001Z" fill="#333333"/>
</g>
<defs>
<clipPath id="clip0_78_26337">
<rect width="7.002" height="13.001" fill="white" transform="translate(0.00390625)"/>
</clipPath>
</defs>
</svg>
