<svg width="10" height="6" viewBox="0 0 10 6" fill="none" xmlns="http://www.w3.org/2000/svg">
<path fill-rule="evenodd" clip-rule="evenodd" d="M0.646894 0.646016C0.693339 0.599453 0.748515 0.56251 0.80926 0.537304C0.870005 0.512097 0.935127 0.499123 1.00089 0.499123C1.06666 0.499123 1.13178 0.512097 1.19253 0.537304C1.25327 0.56251 1.30845 0.599453 1.35489 0.646016L5.00089 4.29302L8.64689 0.646016C8.74078 0.552129 8.86812 0.499385 9.00089 0.499385C9.13367 0.499385 9.26101 0.552129 9.35489 0.646016C9.44878 0.739903 9.50152 0.86724 9.50152 1.00002C9.50152 1.13279 9.44878 1.26013 9.35489 1.35402L5.35489 5.35402C5.30845 5.40058 5.25327 5.43752 5.19253 5.46273C5.13178 5.48794 5.06666 5.50091 5.00089 5.50091C4.93513 5.50091 4.87001 5.48794 4.80926 5.46273C4.74852 5.43752 4.69334 5.40058 4.64689 5.35402L0.646894 1.35402C0.600331 1.30757 0.563388 1.25239 0.538181 1.19165C0.512975 1.1309 0.5 1.06578 0.5 1.00002C0.5 0.934249 0.512975 0.869128 0.538181 0.808383C0.563388 0.747638 0.600331 0.692462 0.646894 0.646016Z" fill="#374254"/>
</svg>
