<svg width="11" height="13" viewBox="0 0 11 13" fill="none" xmlns="http://www.w3.org/2000/svg">
<g clip-path="url(#clip0_78_26332)">
<path fill-rule="evenodd" clip-rule="evenodd" d="M6.85685 0.147001C6.90341 0.193446 6.94035 0.248622 6.96556 0.309367C6.99077 0.370112 7.00374 0.435233 7.00374 0.501001C7.00374 0.566768 6.99077 0.631889 6.96556 0.692634C6.94035 0.753379 6.90341 0.808555 6.85685 0.855001L1.20985 6.501L6.85685 12.147C6.95073 12.2409 7.00348 12.3682 7.00348 12.501C7.00348 12.6338 6.95073 12.7611 6.85685 12.855C6.76296 12.9489 6.63562 13.0016 6.50285 13.0016C6.37007 13.0016 6.24273 12.9489 6.14885 12.855L0.148847 6.855C0.102284 6.80855 0.0653409 6.75338 0.0401344 6.69263C0.014928 6.63189 0.00195312 6.56677 0.00195312 6.501C0.00195312 6.43523 0.014928 6.37011 0.0401344 6.30937C0.0653409 6.24862 0.102284 6.19345 0.148847 6.147L6.14885 0.147001C6.19529 0.100437 6.25047 0.0634946 6.31121 0.0382881C6.37196 0.0130817 6.43708 0.000106812 6.50285 0.000106812C6.56861 0.000106812 6.63373 0.0130817 6.69448 0.0382881C6.75523 0.0634946 6.8104 0.100437 6.85685 0.147001Z" fill="#333333"/>
<path fill-rule="evenodd" clip-rule="evenodd" d="M10.8568 0.147001C10.9034 0.193446 10.9404 0.248622 10.9656 0.309367C10.9908 0.370112 11.0037 0.435233 11.0037 0.501001C11.0037 0.566768 10.9908 0.631889 10.9656 0.692634C10.9404 0.753379 10.9034 0.808555 10.8568 0.855001L5.20985 6.501L10.8568 12.147C10.9033 12.1935 10.9402 12.2487 10.9654 12.3094C10.9905 12.3702 11.0035 12.4353 11.0035 12.501C11.0035 12.5667 10.9905 12.6318 10.9654 12.6926C10.9402 12.7533 10.9033 12.8085 10.8568 12.855C10.8104 12.9015 10.7552 12.9384 10.6944 12.9635C10.6337 12.9887 10.5686 13.0016 10.5028 13.0016C10.4371 13.0016 10.372 12.9887 10.3113 12.9635C10.2505 12.9384 10.1953 12.9015 10.1488 12.855L4.14885 6.855C4.10228 6.80855 4.06534 6.75338 4.04013 6.69263C4.01493 6.63189 4.00195 6.56677 4.00195 6.501C4.00195 6.43523 4.01493 6.37011 4.04013 6.30937C4.06534 6.24862 4.10228 6.19345 4.14885 6.147L10.1488 0.147001C10.1953 0.100437 10.2505 0.0634946 10.3112 0.0382881C10.372 0.0130817 10.4371 0.000106812 10.5028 0.000106812C10.5686 0.000106812 10.6337 0.0130817 10.6945 0.0382881C10.7552 0.0634946 10.8104 0.100437 10.8568 0.147001Z" fill="#333333"/>
</g>
<defs>
<clipPath id="clip0_78_26332">
<rect width="11.002" height="13.001" fill="white" transform="translate(0.00195312)"/>
</clipPath>
</defs>
</svg>
