<svg width="17" height="16" viewBox="0 0 17 16" fill="none" xmlns="http://www.w3.org/2000/svg">
<g opacity="0.9" clip-path="url(#clip0_70_15656)">
<path d="M16.8477 8C16.8477 12.4187 13.2664 16 8.84766 16C4.42891 16 0.847656 12.4187 0.847656 8C0.847656 3.58125 4.42891 0 8.84766 0C13.2664 0 16.8477 3.58125 16.8477 8ZM2.65109 6.00313L2.94359 6.54375C3.20266 6.99687 3.62859 7.33125 4.13203 7.475L5.91328 7.99062C6.47891 8.14375 6.84766 8.63438 6.84766 9.19375V10.4406C6.84766 10.7844 7.04141 11.0969 7.34766 11.2219C7.65391 11.4031 7.84766 11.7156 7.84766 12.0594V13.2781C7.84766 13.7656 8.31328 14.1156 8.78203 13.9812C9.28828 13.8375 9.67578 13.4094 9.80391 12.9281L9.89141 12.5781C10.0227 12.05 10.3664 11.5969 10.8383 11.325L11.0914 11.1812C11.5602 10.9156 11.8477 10.4187 11.8477 9.87813V9.62187C11.8477 9.22188 11.6883 8.84062 11.407 8.55937L11.2883 8.44063C11.007 8.15938 10.6227 7.97188 10.2258 7.97188H8.85078C8.53203 7.97188 8.18828 7.90938 7.88516 7.7375L6.80703 7.11875C6.67266 7.04375 6.56953 6.91875 6.52266 6.77187C6.42266 6.47187 6.55703 6.14688 6.83828 6.00313L7.02578 5.9125C7.23203 5.80937 7.46953 5.79063 7.66328 5.86562L8.41641 6.10625C8.66953 6.19062 8.95078 6.09375 9.10078 5.87187C9.24766 5.65 9.23203 5.35938 9.06328 5.15625L8.63828 4.65C8.32578 4.275 8.32891 3.72813 8.64766 3.35938L9.13828 2.785C9.41328 2.46406 9.45703 2.005 9.24766 1.63812L9.17266 1.50812C9.03828 1.50281 8.95703 1.5 8.84766 1.5C5.94453 1.5 3.48516 3.40313 2.65109 6.00313ZM14.5227 4.82812L13.7227 5.15C13.232 5.34688 12.9789 5.89062 13.1445 6.39375L13.6727 7.97813C13.782 8.30313 14.0477 8.55 14.3789 8.63437L15.2914 8.85938C15.3289 8.57812 15.3477 8.29062 15.3477 8C15.3477 6.85 15.0477 5.76875 14.5227 4.82812Z" fill="#343434"/>
</g>
<defs>
<clipPath id="clip0_70_15656">
<rect width="16" height="16" fill="white" transform="translate(0.847656)"/>
</clipPath>
</defs>
</svg>
