<svg width="49" height="48" viewBox="0 0 49 48" fill="none" xmlns="http://www.w3.org/2000/svg">
<ellipse cx="24.1477" cy="24" rx="24.1477" ry="24" fill="#C4C4C4"/>
<g style="mix-blend-mode:luminosity">
<path d="M48.2954 24C48.2954 30.5761 45.6343 36.5339 41.2747 40.8618C38.4438 43.7283 34.8202 45.8642 30.8003 47.0445C28.6488 47.6627 26.4407 48 24.1194 48C22.0245 48 20.0429 47.719 18.1178 47.2693C14.4943 46.3138 11.1538 44.5714 8.3795 42.2108C3.22723 37.8267 0 31.3068 0 24.0562C0 10.7354 10.8141 0 24.176 0C37.5379 0 48.2954 10.7354 48.2954 24Z" fill="#BCC3FF"/>
<path d="M41.3316 40.8618C38.5007 43.7283 34.8771 45.8641 30.8572 47.0444C28.7057 47.6627 26.4976 47.9999 24.1763 47.9999C22.0814 47.9999 20.0998 47.7189 18.1748 47.2693C14.5512 46.3138 11.2107 44.5714 8.4364 42.2107L10.0783 33.3864C10.4747 31.1943 12.1732 29.5081 14.3813 29.1147L19.024 28.2716L21.5152 27.822L24.1197 27.3723L27.63 28.103L29.4418 28.4964L35.783 29.7892C37.8779 30.2388 39.5765 31.8688 39.9728 34.0046L41.3316 40.8618Z" fill="#5E57B0"/>
<path d="M30.8567 47.0444C28.7052 47.6626 26.4971 47.9999 24.1757 47.9999C22.0809 47.9999 20.0992 47.7189 18.1742 47.2692L19.0235 28.3278L21.5147 27.8781L24.1191 27.4285L27.6294 28.1591L29.4412 28.5526L30.8567 47.0444Z" fill="white"/>
<path d="M18.6278 17.3114C18.6278 17.3114 16.8726 11.6908 19.0241 11.5784C19.0241 11.5784 19.5903 8.76811 22.3646 8.82432C25.1389 8.88052 29.5551 10.1171 30.6309 11.2412C31.7066 12.3653 31.0838 16.9742 31.0838 16.9742L23.7235 19.11L18.6278 17.3114Z" fill="#41180F"/>
<path d="M21.968 21.4146L21.4584 28.89C21.4018 29.452 21.7981 29.9579 22.3077 30.1265C22.9871 30.2951 23.893 30.4637 24.9121 30.4075C25.6482 30.3513 26.3276 30.2389 26.8371 30.1265C27.4033 29.9579 27.743 29.452 27.743 28.89L27.1768 21.4146H21.968Z" fill="#943E29"/>
<path d="M21.9676 21.4146L21.6279 25.8549C22.8169 26.4169 25.1383 27.1476 27.4596 25.4052L27.2331 22.0329C26.8368 21.808 26.4405 21.5832 25.9875 21.3584H21.9676V21.4146Z" fill="#5A281D"/>
<path d="M19.477 13.7144C19.477 13.7144 18.288 19.0539 19.9299 22.5949C21.5719 26.0797 24.516 25.9673 25.4219 25.9111C26.2712 25.8549 31.7631 25.2366 30.1212 13.9392C30.1212 13.9392 21.6285 17.424 19.477 13.7144Z" fill="#943E29"/>
<path d="M19.7329 19.8383C20.4487 19.4556 20.6323 18.4143 20.1429 17.5124C19.6536 16.6105 18.6767 16.1897 17.9609 16.5724C17.2452 16.9551 17.0616 17.9965 17.5509 18.8983C18.0402 19.8002 19.0171 20.2211 19.7329 19.8383Z" fill="#943E29"/>
<path d="M32.2581 18.9068C32.7474 18.0049 32.5638 16.9636 31.848 16.5808C31.1323 16.1981 30.1554 16.619 29.666 17.5208C29.1767 18.4227 29.3603 19.4641 30.076 19.8468C30.7918 20.2295 31.7687 19.8086 32.2581 18.9068Z" fill="#943E29"/>
</g>
</svg>
