<svg width="10" height="12" viewBox="0 0 10 12" fill="none" xmlns="http://www.w3.org/2000/svg">
<g opacity="0.7" clip-path="url(#clip0_70_15696)">
<path d="M5.59764 6.31677H5.56264V6.35177V9.50176C5.56264 9.86937 5.26487 10.1665 4.89764 10.1665C4.53042 10.1665 4.23265 9.86937 4.23265 9.50176V6.35177V6.31677H4.19765H1.04765C0.680454 6.31677 0.382656 6.01919 0.382656 5.65155C0.382656 5.28394 0.680426 4.98677 1.04765 4.98677H4.19765H4.23265V4.95177V1.80178C4.23265 1.43414 4.53044 1.13656 4.89764 1.13656C5.26484 1.13656 5.56264 1.43414 5.56264 1.80178V4.95177V4.98677H5.59764H8.74763H8.74765C9.11549 4.98656 9.41263 5.28369 9.41263 5.65155C9.41263 6.01919 9.11483 6.31677 8.74763 6.31677H5.59764Z" fill="#343434" stroke="#F2F2F2" stroke-width="0.0699998"/>
</g>
<defs>
<clipPath id="clip0_70_15696">
<rect width="9.79997" height="11.2" fill="white" transform="translate(-0.00195312 0.0507812)"/>
</clipPath>
</defs>
</svg>
