<svg width="10" height="12" viewBox="0 0 10 12" fill="none" xmlns="http://www.w3.org/2000/svg">
<g opacity="0.7" clip-path="url(#clip0_70_15690)">
<path d="M5.5996 7.01599H5.5646V7.05099V10.201C5.5646 10.5686 5.26683 10.8658 4.8996 10.8658C4.53237 10.8658 4.2346 10.5686 4.2346 10.201V7.05099V7.01599H4.1996H1.04961C0.682407 7.01599 0.384609 6.71841 0.384609 6.35077C0.384609 5.98316 0.682379 5.68599 1.04961 5.68599H4.1996H4.2346V5.65099V2.501C4.2346 2.13336 4.5324 1.83578 4.8996 1.83578C5.2668 1.83578 5.5646 2.13336 5.5646 2.501V5.65099V5.68599H5.5996H8.74959H8.74961C9.11744 5.68578 9.41459 5.98291 9.41459 6.35077C9.41459 6.71841 9.11679 7.01599 8.74959 7.01599H5.5996Z" fill="#343434" stroke="#F2F2F2" stroke-width="0.0699998"/>
</g>
<defs>
<clipPath id="clip0_70_15690">
<rect width="9.79997" height="11.2" fill="white" transform="translate(-0.000976562 0.75)"/>
</clipPath>
</defs>
</svg>
