<svg width="10" height="12" viewBox="0 0 10 12" fill="none" xmlns="http://www.w3.org/2000/svg">
<g opacity="0.7" clip-path="url(#clip0_70_15684)">
<path d="M5.59764 6.71716H5.56264V6.75216V9.90215C5.56264 10.2698 5.26487 10.5669 4.89764 10.5669C4.53042 10.5669 4.23265 10.2698 4.23265 9.90215V6.75216V6.71716H4.19765H1.04765C0.680454 6.71716 0.382656 6.41958 0.382656 6.05194C0.382656 5.68433 0.680426 5.38716 1.04765 5.38716H4.19765H4.23265V5.35216V2.20217C4.23265 1.83453 4.53044 1.53695 4.89764 1.53695C5.26484 1.53695 5.56264 1.83453 5.56264 2.20217V5.35216V5.38716H5.59764H8.74763H8.74765C9.11549 5.38695 9.41263 5.68408 9.41263 6.05194C9.41263 6.41958 9.11483 6.71716 8.74763 6.71716H5.59764Z" fill="#343434" stroke="#F2F2F2" stroke-width="0.0699998"/>
</g>
<defs>
<clipPath id="clip0_70_15684">
<rect width="9.79997" height="11.2" fill="white" transform="translate(-0.00195312 0.451172)"/>
</clipPath>
</defs>
</svg>
