<svg width="10" height="12" viewBox="0 0 10 12" fill="none" xmlns="http://www.w3.org/2000/svg">
<g opacity="0.7" clip-path="url(#clip0_70_15708)">
<path d="M5.59569 6.91442H5.56069V6.94942V10.0994C5.56069 10.467 5.26292 10.7642 4.89569 10.7642C4.52846 10.7642 4.23069 10.467 4.23069 10.0994V6.94942V6.91442H4.19569H1.0457C0.678501 6.91442 0.380703 6.61684 0.380703 6.24921C0.380703 5.8816 0.678472 5.58443 1.0457 5.58443H4.19569H4.23069V5.54943V2.39944C4.23069 2.0318 4.52849 1.73422 4.89569 1.73422C5.26289 1.73422 5.56069 2.0318 5.56069 2.39944V5.54943V5.58443H5.59569H8.74568H8.7457C9.11354 5.58422 9.41068 5.88135 9.41068 6.24921C9.41068 6.61684 9.11288 6.91442 8.74568 6.91442H5.59569Z" fill="#343434" stroke="#F2F2F2" stroke-width="0.0699998"/>
</g>
<defs>
<clipPath id="clip0_70_15708">
<rect width="9.79997" height="11.2" fill="white" transform="translate(-0.00292969 0.650391)"/>
</clipPath>
</defs>
</svg>
