<svg width="103" height="97" viewBox="0 0 103 97" fill="none" xmlns="http://www.w3.org/2000/svg">
<circle cx="49.9129" cy="2.99937" r="2.17906" fill="#0B0B0B"/>
<path d="M4.35811 80.6166C4.35811 81.82 3.38252 82.7956 2.17906 82.7956C0.975597 82.7956 0 81.82 0 80.6166C0 79.4131 0.975597 78.4375 2.17906 78.4375C3.38252 78.4375 4.35811 79.4131 4.35811 80.6166Z" fill="#0B0B0B"/>
<circle cx="97.6473" cy="80.6166" r="2.17906" fill="#0B0B0B"/>
<circle cx="2.17906" cy="36.7425" r="2.17906" fill="#0B0B0B"/>
<circle cx="100.116" cy="36.7425" r="2.17906" fill="#0B0B0B"/>
<path d="M51.4472 16.8232L63.3872 41.0088C63.5781 41.4034 63.96 41.6834 64.4055 41.7471L91.0988 45.6295C92.2062 45.795 92.6517 47.1443 91.8498 47.9335L72.5268 66.7473C72.2086 67.0528 72.0685 67.4983 72.1449 67.9439L76.702 94.5225C76.8929 95.63 75.7346 96.4574 74.7417 95.9482L50.8743 83.3972C50.4797 83.1935 50.0087 83.1935 49.6141 83.3972L25.7468 95.9482C24.7539 96.4701 23.5956 95.63 23.7865 94.5225L28.3436 67.9439C28.4199 67.5111 28.2799 67.0655 27.9617 66.7473L8.63868 47.9207C7.83674 47.1443 8.28226 45.7822 9.38971 45.6168L36.0829 41.7343C36.5157 41.6707 36.8976 41.3906 37.1013 40.996L49.0413 16.8105C49.525 15.8176 50.9507 15.8176 51.4472 16.8232Z" fill="#0B0B0B"/>
<path d="M50.2381 22.4111L39.5965 43.0198C39.0364 44.1018 37.9671 44.8273 36.7579 44.9292L13.667 47.0295L38.069 48.1751C39.6219 48.2515 41.0349 47.3095 41.5695 45.8584L50.2381 22.4111Z" fill="#0B0B0B"/>
<path d="M24.3084 91.4675L23.7865 94.5225C23.5955 95.6299 24.7539 96.4573 25.7468 95.9482L49.6141 83.3971C50.0087 83.1935 50.4797 83.1935 50.8743 83.3971L74.7417 95.9482C75.7345 96.4701 76.8929 95.6299 76.702 94.5225L72.1322 67.9438C72.0558 67.511 72.1958 67.0655 72.514 66.7473L91.8243 47.9207C92.6263 47.1442 92.1807 45.7822 91.0733 45.6167L82.1501 44.3311C67.6897 70.2733 45.5535 83.9318 24.3084 91.4675Z" fill="#0B0B0B"/>
</svg>
