<svg width="64" height="65" viewBox="0 0 64 65" fill="none" xmlns="http://www.w3.org/2000/svg">
<path d="M31.9999 17.1663C33.1045 17.1663 33.9999 18.0618 33.9999 19.1663V35.1663C33.9999 36.2709 33.1045 37.1663 31.9999 37.1663C30.8954 37.1663 29.9999 36.2709 29.9999 35.1663V19.1663C29.9999 18.0618 30.8954 17.1663 31.9999 17.1663Z" fill="#333333"/>
<path d="M31.9999 45.833C33.4727 45.833 34.6666 44.6391 34.6666 43.1663C34.6666 41.6936 33.4727 40.4997 31.9999 40.4997C30.5272 40.4997 29.3333 41.6936 29.3333 43.1663C29.3333 44.6391 30.5272 45.833 31.9999 45.833Z" fill="#333333"/>
<path fill-rule="evenodd" clip-rule="evenodd" d="M3.33325 32.4997C3.33325 16.6675 16.1678 3.83301 31.9999 3.83301C47.8321 3.83301 60.6666 16.6675 60.6666 32.4997C60.6666 48.3318 47.8321 61.1663 31.9999 61.1663C16.1678 61.1663 3.33325 48.3318 3.33325 32.4997ZM31.9999 7.83301C18.3769 7.83301 7.33325 18.8767 7.33325 32.4997C7.33325 46.1227 18.3769 57.1663 31.9999 57.1663C45.6229 57.1663 56.6666 46.1227 56.6666 32.4997C56.6666 18.8767 45.6229 7.83301 31.9999 7.83301Z" fill="#333333"/>
</svg>
